<svg width="100" height="22" viewBox="0 0 100 22" fill="none" xmlns="http://www.w3.org/2000/svg">
<path d="M14.7597 17.0262H11.9341L10.3864 12.2843H5.00651L3.53215 17.0262H0.78125L6.11135 0.882523H9.40347L14.7597 17.0262ZM9.91981 10.2948L8.5201 6.07937C8.37204 5.64873 8.09459 4.63459 7.68525 3.03817H7.63548C7.47249 3.72478 7.20997 4.73892 6.84915 6.07937L5.47433 10.2948H9.91981Z" fill="#33354D"/>
<path d="M28.4669 11.0628C28.4669 13.0425 27.9182 14.6074 26.8209 15.7562C25.8379 16.7788 24.6174 17.2895 23.1605 17.2895C21.5878 17.2895 20.4581 16.7388 19.77 15.6373H19.7203V21.7694H17.0677V9.21765C17.0677 7.97303 17.0341 6.69565 16.9694 5.38552H19.3022L19.4503 7.23062H19.5001C20.3847 5.84043 21.7271 5.14654 23.5287 5.14654C24.9372 5.14654 26.1129 5.68879 27.0535 6.7745C27.9966 7.86142 28.4669 9.29044 28.4669 11.0628ZM25.7645 11.1574C25.7645 10.0244 25.5033 9.09028 24.9782 8.35515C24.4046 7.58848 23.6345 7.20515 22.669 7.20515C22.0146 7.20515 21.4198 7.41865 20.8886 7.83959C20.3561 8.26417 20.0077 8.81855 19.8447 9.50515C19.7626 9.82541 19.7215 10.0874 19.7215 10.2937V12.2346C19.7215 13.0813 19.9878 13.7958 20.5203 14.3793C21.0528 14.9628 21.7446 15.254 22.5956 15.254C23.5947 15.254 24.3723 14.8779 24.9284 14.1282C25.4858 13.3773 25.7645 12.3874 25.7645 11.1574Z" fill="#33354D"/>
<path d="M42.199 11.0628C42.199 13.0425 41.6503 14.6074 40.5517 15.7562C39.5701 16.7788 38.3495 17.2895 36.8926 17.2895C35.3199 17.2895 34.1902 16.7388 33.5034 15.6373H33.4536V21.7694H30.801V9.21765C30.801 7.97303 30.7674 6.69565 30.7027 5.38552H33.0356L33.1837 7.23062H33.2334C34.1168 5.84043 35.4593 5.14654 37.2621 5.14654C38.6693 5.14654 39.845 5.68879 40.7881 6.7745C41.7275 7.86142 42.199 9.29044 42.199 11.0628ZM39.4967 11.1574C39.4967 10.0244 39.2341 9.09028 38.7091 8.35515C38.1355 7.58848 37.3679 7.20515 36.4011 7.20515C35.7454 7.20515 35.152 7.41865 34.6194 7.83959C34.0869 8.26417 33.7398 8.81855 33.5768 9.50515C33.4959 9.82541 33.4536 10.0874 33.4536 10.2937V12.2346C33.4536 13.0813 33.7199 13.7958 34.2499 14.3793C34.7824 14.9616 35.4742 15.254 36.3277 15.254C37.3268 15.254 38.1044 14.8779 38.6606 14.1282C39.218 13.3773 39.4967 12.3874 39.4967 11.1574Z" fill="#33354D"/>
<path d="M57.5523 12.499C57.5523 13.8722 57.0634 14.9895 56.0817 15.852C55.003 16.7946 53.5012 17.2652 51.5715 17.2652C49.7898 17.2652 48.3615 16.9304 47.2803 16.2596L47.8949 14.1039C49.0595 14.7906 50.3373 15.1351 51.7295 15.1351C52.7286 15.1351 53.5062 14.9143 54.0649 14.4751C54.621 14.036 54.8985 13.4465 54.8985 12.7113C54.8985 12.0563 54.6695 11.5043 54.2104 11.0567C53.7538 10.6091 52.9911 10.193 51.9261 9.80842C49.0271 8.75425 47.5789 7.20999 47.5789 5.17929C47.5789 3.85218 48.0865 2.76404 49.103 1.91731C50.1158 1.06936 51.467 0.645996 53.1566 0.645996C54.6633 0.645996 55.915 0.901957 56.914 1.41266L56.2509 3.52101C55.3177 3.02607 54.2627 2.7786 53.0819 2.7786C52.1488 2.7786 51.4197 3.00302 50.8972 3.44943C50.4555 3.84854 50.234 4.33498 50.234 4.9112C50.234 5.54928 50.4866 6.07697 50.9942 6.49185C51.4359 6.87518 52.2384 7.29006 53.403 7.73768C54.8275 8.29692 55.8739 8.95077 56.547 9.70045C57.2176 10.4477 57.5523 11.383 57.5523 12.499Z" fill="#33354D"/>
<path d="M66.3226 7.32643H63.3988V12.9782C63.3988 14.4157 63.9138 15.1338 64.9465 15.1338C65.4206 15.1338 65.8137 15.0938 66.1248 15.0137L66.1982 16.9777C65.6756 17.1682 64.9876 17.264 64.1353 17.264C63.0877 17.264 62.269 16.9523 61.678 16.3299C61.0895 15.7064 60.7934 14.6607 60.7934 13.1917V7.32401H59.0516V5.38307H60.7934V3.25169L63.3988 2.48502V5.38307H66.3226V7.32643Z" fill="#33354D"/>
<path d="M79.5147 11.11C79.5147 12.8993 78.9897 14.3684 77.942 15.5172C76.8434 16.6999 75.3852 17.2895 73.5675 17.2895C71.8157 17.2895 70.4209 16.723 69.3808 15.59C68.3406 14.4569 67.8206 13.0267 67.8206 11.3029C67.8206 9.49907 68.3556 8.02154 69.4293 6.87275C70.5006 5.72275 71.9463 5.14774 73.7641 5.14774C75.5159 5.14774 76.9255 5.71425 77.9893 6.84849C79.0071 7.94875 79.5147 9.36927 79.5147 11.11ZM76.7626 11.1938C76.7626 10.1202 76.5274 9.19944 76.0509 8.43156C75.4947 7.50234 74.6997 7.03894 73.6695 7.03894C72.6032 7.03894 71.7933 7.50355 71.2371 8.43156C70.7606 9.20066 70.5254 10.1359 70.5254 11.2423C70.5254 12.3159 70.7606 13.2366 71.2371 14.0033C71.8107 14.9325 72.6119 15.3959 73.6459 15.3959C74.6586 15.3959 75.4537 14.9228 76.0272 13.979C76.5162 13.1966 76.7626 12.2661 76.7626 11.1938Z" fill="#33354D"/>
<path d="M88.137 7.66005C87.8744 7.61274 87.5945 7.58848 87.3009 7.58848C86.3677 7.58848 85.6461 7.93178 85.1384 8.6196C84.6968 9.22614 84.4753 9.99281 84.4753 10.9184V17.0263H81.8239L81.8488 9.05146C81.8488 7.70979 81.8152 6.48821 81.7493 5.38673H84.0597L84.1568 7.61396H84.2302C84.5101 6.8485 84.9518 6.23225 85.5565 5.77007C86.1475 5.35398 86.7858 5.14654 87.4738 5.14654C87.7189 5.14654 87.9404 5.16353 88.137 5.19385V7.66005Z" fill="#33354D"/>
<path d="M100 10.6551C100 11.1185 99.9692 11.5092 99.9032 11.8282H91.9454C91.9765 12.9782 92.361 13.8577 93.1 14.4642C93.7706 15.0065 94.6378 15.2782 95.7029 15.2782C96.8811 15.2782 97.9561 15.095 98.9228 14.7275L99.3384 16.5228C98.2086 17.0032 96.8749 17.2422 95.3358 17.2422C93.4845 17.2422 92.0313 16.7109 90.9737 15.6494C89.9186 14.588 89.3898 13.1626 89.3898 11.3745C89.3898 9.61917 89.8813 8.1574 90.8655 6.99163C91.8956 5.74701 93.2879 5.1247 95.0397 5.1247C96.7604 5.1247 98.0631 5.74701 98.9477 6.99163C99.6482 7.98029 100 9.20308 100 10.6551ZM97.4708 9.98431C97.4883 9.21764 97.3153 8.55529 96.9557 7.99606C96.4966 7.2767 95.7912 6.91763 94.8419 6.91763C93.9747 6.91763 93.2692 7.26821 92.7305 7.9718C92.2888 8.53103 92.0263 9.20187 91.9454 9.98309H97.4708V9.98431Z" fill="#33354D"/>
</svg>
